<?xml version="1.0" encoding="UTF-8" standalone="no"?>
<svg
   xmlns:svg="http://www.w3.org/2000/svg"
   xmlns="http://www.w3.org/2000/svg"
   id="svg2"
   xml:space="preserve"
   style="overflow:visible"
   height="192.0256"
   width="192.0256"
   version="1.1"><title
   id="title4489">Microsoft Word doc logo</title><g
   id="g2987"><path
     id="path2993"
     d="m 2.0137293,154.69862 2.3766601,-84.218441 38.7659126,-0.09442 -0.005,-56.289651 87.094859,0.287675 36.17627,36.247127 c 0.46657,42.144595 0.15174,84.290163 0,126.435563 H 43.368164 l -0.504498,-22.4387 z"
     style="fill:#fefefe" /><path
     id="path2991"
     d="M 42.0056,168.0224 V 157.521 c 14.522294,-0.32755 34.141926,-3.80931 44.238302,-4.59207 -0.07949,-9.04722 0.135307,-70.742705 -0.02097,-81.733433 C 76.408096,70.226392 58.011077,67.733043 42.0056,67.509 V 40.13035 12.7517 H 86.454651 130.9037 l 18.55935,18.570492 18.55935,18.570492 V 114.20825 178.5238 H 105.014 42.0056 Z M 165.7721,114.0152 V 51.7569 H 111.7649 57.7577 V 48.38145 45.006 H 93.38745 129.0172 V 40.5054 36.0048 H 93.38745 57.7577 V 32.62935 29.2539 H 93.38745 129.0172 V 22.12795 15.002 H 86.63655 44.2559 V 41.2555 67.509 h 6.7509 6.7509 V 64.13355 60.7581 h 47.2563 47.2563 V 64.13355 67.509 H 121.14115 90.012 v 4.5006 4.5006 h 31.12915 31.12915 v 3.37545 3.37545 H 121.14115 90.012 v 4.5006 4.5006 h 31.12915 31.12915 v 3.37545 3.37545 H 121.14115 90.012 v 4.5006 4.5006 h 31.12915 31.12915 v 3.37545 3.37545 H 121.14115 90.012 v 4.5006 4.5006 h 31.12915 31.12915 v 3.37545 3.37545 H 121.14115 90.012 v 4.5006 4.5006 h 31.12915 31.12915 v 3.37545 3.37545 H 121.14115 90.012 v 4.5006 4.5006 h 31.12915 31.12915 v 3.37545 3.37545 H 105.014 57.7577 v -2.2503 -2.2503 h -6.7509 -6.7509 v 9.37625 9.37625 h 60.7581 60.7581 z M 165.022,49.312824 c 0,-0.106578 -7.59476,-7.782913 -16.87725,-17.058524 L 131.2675,15.389553 V 32.448076 49.5066 h 16.87725 c 9.28249,0 16.87725,-0.0872 16.87725,-0.193776 z"
     style="fill:#999898" /><path
     id="path2989"
     d="m 0,112.515 0,-45.006 45.006,0 45.006,0 0,45.006 0,45.006 -45.006,0 -45.006,0 z m 83.2611,10.87645 0,-27.37865 -1.737914,0 c -1.515682,0 -3.235842,2.853425 -13.452633,22.31548 l -11.714724,22.31547 -6.779852,0.21541 -6.779853,0.2154 -0.207737,-10.84077 -0.207737,-10.84076 -6.234458,10.81288 -6.234459,10.81289 -5.954666,0 -5.954667,0 0,-22.503 0,-22.503 -3.0004,0 -3.0004,0 0,-4.5006 0,-4.5006 13.5018,0 13.5018,0 0,4.5006 0,4.5006 -3.37545,0 -3.37545,0 0.062,8.06358 0.062,8.06357 6.065788,-12.564175 6.065789,-12.564175 6.248866,0 6.248867,0 0.0093,12.939225 0.0093,12.939225 4.833712,-8.2511 4.833712,-8.2511 -2.592752,-0.232809 -2.592751,-0.232801 0,-4.455324 0,-4.455316 10.87645,0 10.87645,0 0,-6.37585 0,-6.37585 -38.2551,0 -38.2551,0 0,38.2551 0,38.2551 38.2551,0 38.2551,0 0,-27.37865 z"
     style="fill:#295595" /></g>
</svg>